<?xml version="1.0" encoding="UTF-8" standalone="no"?>
<!DOCTYPE svg PUBLIC "-//W3C//DTD SVG 1.1//EN" "http://www.w3.org/Graphics/SVG/1.1/DTD/svg11.dtd">
<svg xmlns="http://www.w3.org/2000/svg" version="1.1" viewBox="0.00 0.00 1328.00 1579.00">
<path fill="#ffffff" d="
  M 434.87 1409.40
  C 312.10 1335.36 190.22 1259.81 68.18 1184.58
  Q 58.88 1178.84 45.15 1172.49
  Q 44.66 1172.26 44.69 1171.72
  Q 44.86 1168.25 44.83 1164.94
  C 42.74 924.07 43.71 683.13 43.77 442.25
  C 43.77 439.52 46.19 436.71 48.64 435.02
  C 256.83 291.16 467.53 151.28 678.00 10.42
  A 2.26 2.26 0.0 0 1 680.45 10.38
  C 884.90 137.81 1090.06 264.59 1294.18 392.83
  Q 1297.01 394.60 1297.01 397.31
  C 1297.03 450.31 1297.69 503.31 1297.71 556.31
  Q 1297.80 796.53 1297.72 1036.75
  C 1297.71 1071.48 1296.90 1106.25 1296.70 1141.00
  Q 1296.68 1143.78 1294.49 1145.26
  Q 1111.99 1267.67 929.14 1389.53
  C 851.45 1441.31 769.68 1496.90 680.75 1556.24
  Q 679.71 1556.93 678.84 1557.20
  A 1.16 1.16 0.0 0 1 677.89 1557.09
  Q 676.75 1556.43 674.44 1555.05
  Q 553.16 1482.42 451.94 1419.82
  Q 443.34 1414.50 434.87 1409.40
  Z
  M 454.67 358.31
  Q 455.06 358.31 455.67 357.90
  L 678.73 209.12
  A 1.78 1.78 0.0 0 1 680.65 209.09
  L 905.80 348.46
  A 1.42 1.42 0.0 0 0 907.97 347.25
  L 907.66 244.11
  A 2.79 2.78 16.1 0 0 906.35 241.75
  L 682.72 101.71
  A 2.99 2.98 44.0 0 0 679.48 101.76
  C 605.25 151.65 530.89 201.71 456.69 252.30
  C 453.89 254.21 453.80 255.83 453.81 259.00
  Q 453.98 308.41 454.24 357.83
  Q 454.24 358.04 454.32 358.15
  Q 454.45 358.31 454.67 358.31
  Z
  M 1088.76 858.76
  Q 1088.91 693.30 1089.57 527.84
  C 1089.60 521.15 1090.16 517.02 1084.68 513.82
  C 1053.15 495.35 1025.40 477.33 995.82 458.99
  Q 840.93 362.95 685.93 267.08
  Q 683.93 265.84 681.77 264.95
  Q 681.33 264.76 680.87 264.87
  Q 679.50 265.18 679.01 265.52
  Q 570.30 339.54 460.86 412.48
  C 403.44 450.75 346.69 490.13 289.48 528.73
  C 285.46 531.44 275.38 536.42 274.98 541.50
  C 274.15 552.04 273.97 566.52 274.00 579.50
  Q 274.16 663.41 273.72 747.31
  C 273.63 762.66 273.97 778.95 273.98 793.32
  Q 274.01 930.13 274.23 1066.94
  Q 274.23 1070.18 276.03 1071.25
  Q 442.86 1171.32 609.01 1272.51
  C 633.21 1287.26 657.67 1301.62 682.06 1316.07
  A 0.96 0.96 0.0 0 0 682.96 1316.11
  Q 691.08 1312.13 696.22 1308.73
  C 825.13 1223.24 954.85 1138.97 1082.53 1051.63
  C 1087.14 1048.47 1090.09 1045.70 1090.04 1040.24
  Q 1089.64 1003.75 1089.74 967.25
  C 1089.75 962.87 1089.17 957.81 1089.20 953.50
  C 1089.41 921.91 1088.73 890.34 1088.76 858.76
  Z
  M 985.57 399.73
  Q 1058.14 444.76 1130.36 488.43
  Q 1131.83 489.32 1131.83 491.25
  Q 1131.46 620.12 1132.19 748.70
  A 0.89 0.89 0.0 0 0 1133.44 749.51
  Q 1135.26 748.70 1136.84 747.61
  Q 1173.53 722.16 1210.50 696.68
  A 1.85 1.82 -17.5 0 0 1211.30 695.17
  L 1211.15 433.33
  A 2.38 2.37 16.1 0 0 1210.04 431.32
  Q 1100.95 362.37 990.99 293.76
  Q 988.18 292.01 986.26 291.07
  A 0.49 0.49 0.0 0 0 985.56 291.45
  Q 985.25 294.08 985.25 296.75
  Q 985.24 348.08 985.26 399.18
  A 0.65 0.64 15.9 0 0 985.57 399.73
  Z
  M 136.25 464.28
  C 134.15 468.69 135.75 471.82 135.75 475.75
  Q 135.75 625.22 135.75 774.62
  A 1.42 1.41 76.0 0 0 137.83 775.87
  Q 139.14 775.17 140.63 774.11
  Q 180.22 746.06 220.44 718.93
  Q 221.97 717.90 221.98 716.00
  Q 222.15 665.04 221.75 614.09
  C 221.72 609.58 222.29 604.30 222.25 599.98
  Q 221.92 557.96 221.73 515.81
  Q 221.73 515.26 222.19 514.95
  L 370.34 414.34
  A 3.18 3.15 -17.2 0 0 371.72 411.75
  C 371.78 399.83 372.37 387.50 372.21 376.40
  Q 371.71 341.74 371.13 307.43
  A 0.61 0.60 -17.2 0 0 370.19 306.94
  L 137.19 463.19
  A 2.77 2.73 -4.7 0 0 136.25 464.28
  Z
  M 1210.68 872.45
  Q 1210.81 870.78 1210.38 785.89
  A 0.29 0.29 0.0 0 0 1209.93 785.65
  L 1133.15 838.17
  A 3.16 3.14 -17.2 0 0 1131.77 840.77
  L 1131.74 1067.74
  A 1.55 1.54 -17.1 0 1 1131.06 1069.02
  L 988.62 1164.47
  A 1.70 1.67 -16.7 0 0 987.88 1165.82
  Q 987.13 1211.90 986.94 1258.21
  Q 986.93 1259.23 987.13 1259.75
  Q 987.53 1260.86 988.52 1260.76
  A 4.07 3.65 22.0 0 0 990.26 1260.13
  Q 1042.38 1225.44 1094.48 1191.11
  C 1133.37 1165.48 1171.74 1139.10 1210.07 1113.14
  A 2.91 2.89 73.2 0 0 1211.35 1110.73
  Q 1211.32 1033.49 1210.90 956.25
  A 87.03 0.27 89.7 0 1 1210.68 872.45
  Z
  M 141.00 1140.01
  C 215.82 1185.57 290.59 1231.28 365.82 1276.18
  Q 367.53 1277.20 368.48 1277.61
  Q 370.47 1278.47 370.45 1276.30
  L 369.45 1171.76
  Q 369.44 1171.27 368.99 1171.08
  Q 360.00 1167.31 355.79 1164.73
  Q 289.93 1124.46 224.06 1084.19
  C 222.01 1082.94 223.12 1080.33 223.12 1078.97
  Q 222.55 943.14 223.06 807.77
  A 1.30 1.30 0.0 0 0 221.04 806.69
  Q 179.67 834.39 139.17 861.66
  C 136.90 863.19 135.75 863.55 135.75 866.67
  Q 135.75 996.41 135.74 1126.14
  C 135.74 1133.48 133.85 1135.66 141.00 1140.01
  Z
  M 455.51 1332.43
  Q 565.48 1398.43 675.47 1464.30
  Q 678.57 1466.16 680.74 1467.07
  A 1.10 1.09 39.0 0 0 681.76 1466.97
  Q 795.81 1392.37 909.06 1316.56
  C 911.32 1315.05 912.50 1314.67 912.50 1311.58
  Q 912.50 1263.05 912.50 1214.77
  A 1.73 1.72 73.2 0 0 909.82 1213.33
  Q 796.37 1288.97 683.09 1364.90
  C 680.73 1366.48 679.30 1366.46 676.98 1365.04
  Q 565.32 1296.63 453.73 1228.25
  A 0.59 0.59 0.0 0 0 452.83 1228.76
  L 453.89 1329.60
  A 3.35 3.34 -74.9 0 0 455.51 1332.43
  Z"
/>
<path fill="#ffffff" d="
  M 362.94 1029.06
  C 360.23 1027.40 359.57 1024.85 359.56 1021.57
  C 359.17 890.18 359.54 758.79 359.51 627.40
  C 359.50 618.12 359.00 604.15 359.54 594.82
  C 359.60 593.67 361.26 592.86 362.04 592.33
  Q 542.25 468.55 682.07 375.83
  Q 683.24 375.06 685.03 376.16
  Q 841.61 472.13 997.23 569.67
  C 1000.48 571.71 1002.22 571.59 1002.21 576.17
  Q 1001.83 755.71 1002.29 935.25
  C 1002.31 942.76 1001.67 953.08 1002.70 961.95
  C 1004.54 977.80 1002.15 995.47 1002.22 1010.24
  C 1002.23 1012.29 1002.06 1012.95 1000.32 1014.14
  Q 820.44 1136.63 689.05 1223.79
  C 686.19 1225.69 683.03 1224.54 680.07 1222.72
  Q 566.11 1152.60 451.95 1082.79
  C 420.25 1063.40 388.75 1044.90 362.94 1029.06
  Z
  M 429.79 625.07
  Q 543.27 694.00 655.14 763.65
  C 657.07 764.85 657.44 764.58 659.16 763.39
  Q 739.87 707.57 820.55 651.72
  C 849.42 631.73 877.89 611.11 906.67 590.97
  Q 906.69 590.95 907.36 590.55
  Q 909.01 589.55 907.62 587.56
  A 1.73 1.65 86.5 0 0 907.07 587.05
  L 682.55 454.57
  Q 682.19 454.35 681.84 454.59
  L 429.78 624.40
  A 0.40 0.39 -46.2 0 0 429.79 625.07
  Z
  M 710.65 806.35
  C 783.69 850.71 856.48 894.74 928.89 939.67
  Q 930.62 940.75 930.62 938.71
  L 930.67 654.04
  A 1.08 1.08 0.0 0 0 928.98 653.15
  L 710.60 804.79
  A 0.93 0.93 0.0 0 0 710.65 806.35
  Z
  M 641.89 830.82
  Q 640.94 830.01 639.86 829.36
  Q 554.70 777.27 469.50 725.24
  C 456.53 717.33 443.18 710.03 429.94 702.58
  A 0.65 0.63 -45.9 0 0 429.28 702.60
  Q 428.94 702.82 428.94 703.25
  Q 428.99 832.40 429.01 961.55
  C 429.01 966.65 429.47 971.91 429.78 977.08
  A 0.41 0.40 71.5 0 0 430.41 977.40
  Q 537.15 905.87 642.81 832.77
  A 0.82 0.82 0.0 0 0 642.77 831.39
  L 642.33 831.13
  Q 642.10 831.00 641.89 830.82
  Z
  M 481.23 1023.67
  Q 577.63 1082.15 673.82 1139.56
  C 683.15 1145.13 685.84 1149.59 696.29 1142.06
  C 730.21 1117.61 761.73 1099.24 800.61 1073.26
  Q 852.55 1038.53 904.22 1004.14
  A 1.70 1.70 0.0 0 0 904.17 1001.27
  C 837.05 959.92 769.23 919.65 701.39 879.48
  C 699.65 878.45 697.90 877.15 695.88 876.76
  A 1.31 1.28 32.8 0 0 694.91 876.96
  C 623.73 925.05 552.31 972.85 481.53 1021.52
  Q 480.50 1022.23 480.80 1023.13
  A 1.03 1.01 -84.3 0 0 481.23 1023.67
  Z"
/>
</svg>
